<?xml version="1.0" encoding="utf-8"?>
<!-- Generator: Adobe Illustrator 23.0.2, SVG Export Plug-In . SVG Version: 6.00 Build 0)  -->
<svg version="1.1" id="Laag_1" xmlns="http://www.w3.org/2000/svg" xmlns:xlink="http://www.w3.org/1999/xlink" x="0px" y="0px"
	 viewBox="0 0 456.3 102.9" style="enable-background:new 0 0 456.3 102.9;" xml:space="preserve">
<style type="text/css">
	.st0{fill:#59B4FF;}
</style>
<title>Asset 1</title>
<g>
	<path class="st0" d="M176.6,58.2c0,4.3-1.1,8.2-3.3,11.5c-2.2,3.4-5.4,6-9.5,7.8c-4.1,1.9-9,2.8-14.6,2.8c-4.7,0-8.6-0.3-11.7-1
		c-3.2-0.7-6.4-1.8-9.8-3.4V59.1c3.6,1.8,7.3,3.3,11.2,4.3c3.9,1,7.5,1.6,10.7,1.6c2.8,0,4.9-0.5,6.2-1.5c1.3-1,2-2.2,2-3.8
		c0-1-0.3-1.8-0.8-2.5s-1.4-1.4-2.5-2.2c-1.2-0.7-4.3-2.2-9.3-4.5c-4.6-2.1-8-4.1-10.3-6s-4-4.2-5.1-6.7s-1.6-5.5-1.6-8.9
		c0-6.4,2.3-11.5,7-15.1s11.1-5.4,19.3-5.4c7.2,0,14.6,1.7,22.1,5L170.8,28c-6.5-3-12.2-4.5-16.9-4.5c-2.5,0-4.2,0.4-5.4,1.3
		c-1.1,0.9-1.7,1.9-1.7,3.2c0,1.4,0.7,2.6,2.1,3.7c1.4,1.1,5.3,3.1,11.5,5.9c6,2.7,10.2,5.6,12.5,8.7
		C175.5,49.6,176.6,53.5,176.6,58.2z"/>
	<path class="st0" d="M218.8,80.4c-2.7,0-5.2-0.5-7.4-1.4s-4.3-2.5-6.5-4.9h-0.7c0.6,3.8,0.9,6.2,0.9,7.1v21.7h-18.7V25.2h15.2
		l2.6,6.9h0.9c3.5-5.2,8.3-7.8,14.4-7.8c6,0,10.7,2.5,14.1,7.5s5.1,11.8,5.1,20.5s-1.8,15.6-5.3,20.6
		C229.7,77.9,224.9,80.4,218.8,80.4z M212.6,39c-2.7,0-4.7,1-5.8,2.9c-1.1,2-1.7,4.9-1.8,8.7v1.5c0,4.7,0.6,8,1.9,10.1
		c1.2,2.1,3.2,3.1,5.9,3.1c2.4,0,4.1-1,5.2-3.1c1.1-2.1,1.6-5.5,1.6-10.2s-0.5-8-1.6-10C216.9,40,215.1,39,212.6,39z"/>
	<path class="st0" d="M282,24.3c1.6,0,3.2,0.1,4.6,0.4l1.1,0.2L286,42.5c-1.5-0.4-3.6-0.6-6.4-0.6c-4.1,0-7,0.9-8.9,2.8
		c-1.8,1.9-2.8,4.5-2.8,8.1v26.6h-18.7V25.2h14l2.9,8.7h0.9c1.6-2.9,3.7-5.2,6.5-7C276.3,25.2,279.1,24.3,282,24.3z"/>
	<path class="st0" d="M330.5,79.4l-3.6-7.2h-0.4c-2.5,3.1-5.1,5.3-7.7,6.4c-2.6,1.1-6,1.7-10.1,1.7c-5.1,0-9.1-1.5-12-4.6
		s-4.4-7.4-4.4-12.9c0-5.8,2-10.1,6-12.9c4-2.8,9.8-4.4,17.4-4.8l9-0.3V44c0-4.5-2.2-6.7-6.6-6.7c-4,0-9,1.3-15.1,4L297.6,29
		c6.3-3.3,14.3-4.9,23.9-4.9c6.9,0,12.3,1.7,16.1,5.2c3.8,3.4,5.7,8.3,5.7,14.4v35.7H330.5z M316.7,67.2c2.3,0,4.2-0.7,5.8-2.2
		c1.6-1.4,2.4-3.3,2.4-5.6v-4.2l-4.3,0.2c-6.2,0.2-9.2,2.5-9.2,6.8C311.4,65.5,313.2,67.2,316.7,67.2z"/>
	<path class="st0" d="M390.4,79.4V49.9c0-3.6-0.5-6.3-1.6-8.1c-1-1.8-2.7-2.7-5-2.7c-3.2,0-5.4,1.3-6.8,3.8c-1.4,2.5-2.1,6.8-2.1,13
		v23.5h-18.7V25.2h14.1l2.3,6.7h1.1c1.6-2.5,3.8-4.5,6.6-5.7c2.8-1.3,6.1-1.9,9.7-1.9c6,0,10.7,1.7,14,5.2s5,8.4,5,14.7v35.2H390.4z
		"/>
	<path class="st0" d="M448.3,65.6c2.5,0,5.5-0.6,9-1.9v13.6c-2.5,1.1-4.9,1.9-7.2,2.3c-2.3,0.5-4.9,0.7-8,0.7
		c-6.3,0-10.8-1.5-13.6-4.6s-4.2-7.8-4.2-14.2V39.2h-6.5v-7.6l8.3-5.9l4.8-11.4h12.2v10.9h13.3v14h-13.3v21.1
		C443.3,63.8,444.9,65.6,448.3,65.6z"/>
</g>
<g id="Layer_1-2">
	<g>
		<path class="st0" d="M38.9,79.8c-1.2,0-2.4-0.3-3.4-1c-2.9-1.9-3.7-5.7-1.9-8.6c0.6-1,2-4,1.2-6.6c-0.6-2-2.4-3.8-5.4-5.3
			c-7.2-3.6-9-8.6-9.2-12.1c-0.5-9.9,11.1-17.8,13.4-19.3c2.9-1.9,6.8-1,8.6,1.9c1.9,2.9,1,6.8-1.9,8.6c-4,2.6-7.5,6.5-7.7,8
			c0.1,0.2,0.7,0.8,2.3,1.6c7.9,4,10.8,9.4,11.9,13.2c2.3,8.5-2.3,15.8-2.8,16.7C43,78.8,41,79.8,38.9,79.8z"/>
	</g>
	<g>
		<path class="st0" d="M53.9,45.4c-7.2,0-13.8-5-15.3-12.4c-0.9-4.1-0.1-8.3,2.2-11.8s5.8-5.9,9.9-6.8c0.3-0.1,0.6-0.1,0.9-0.2
			c3.8-0.6,27.8-1.5,30,10.4S61.1,44.2,57.3,45l0,0C56,45.3,54.9,45.4,53.9,45.4z M56.7,26.4c-1.2,0-2.3,0.1-3.1,0.2h-0.2
			c-0.1,0-0.1,0-0.2,0c-1.7,0.4-2.8,2-2.4,3.7s2,2.8,3.7,2.4h0.2c2.7-0.5,8.3-3.1,11.8-5.4C63.6,26.8,59.7,26.4,56.7,26.4z"/>
	</g>
	<g>
		<path class="st0" d="M23.9,36.8c-3.4,0-6.7-1.1-9.4-3.2c-0.2-0.2-0.4-0.3-0.7-0.5c-3-2.5-19.4-20-11.8-29.5
			c1.1-1.4,3.2-3.1,6.8-3.5c8-0.9,20.8,5.6,24.6,8.6c6.8,5.2,8.2,15.1,2.9,21.9c-2.5,3.3-6.2,5.5-10.4,6.1
			C25.3,36.8,24.6,36.8,23.9,36.8z M13.9,13.1c1.9,3.5,5.3,8.3,7.8,10.3l0.1,0.1l0.1,0.1c0.9,0.7,1.9,0.7,2.3,0.6
			c0.5-0.1,1.4-0.3,2.1-1.2c0.7-0.9,0.7-1.9,0.6-2.3c-0.1-0.5-0.3-1.4-1.2-2.1l-0.1-0.1C23.5,16.8,18,14.3,13.9,13.1z"/>
	</g>
	<g>
		<path class="st0" d="M72.8,86.5H13.5c-3.5,0-6.3-2.8-6.3-6.3s2.8-6.3,6.3-6.3h59.3c3.5,0,6.3,2.8,6.3,6.3S76.3,86.5,72.8,86.5z"/>
	</g>
</g>
</svg>
