<?xml version="1.0" encoding="utf-8"?>
<!-- Generator: Adobe Illustrator 23.0.2, SVG Export Plug-In . SVG Version: 6.00 Build 0)  -->
<svg version="1.1" id="Laag_1" xmlns="http://www.w3.org/2000/svg" xmlns:xlink="http://www.w3.org/1999/xlink" x="0px" y="0px"
	 viewBox="0 0 800.5 257.9" style="enable-background:new 0 0 800.5 257.9;" xml:space="preserve">
<style type="text/css">
	.st0{fill:#59B4FF;}
</style>
<title>Asset 1</title>
<g>
	<path class="st0" d="M388.4,136.8c0,4.3-1.1,8.2-3.3,11.5c-2.2,3.4-5.4,6-9.5,7.8c-4.1,1.9-9,2.8-14.6,2.8c-4.7,0-8.6-0.3-11.7-1
		c-3.2-0.7-6.4-1.8-9.8-3.4v-16.8c3.6,1.8,7.3,3.3,11.2,4.3c3.9,1,7.5,1.6,10.7,1.6c2.8,0,4.9-0.5,6.2-1.5c1.3-1,2-2.2,2-3.8
		c0-1-0.3-1.8-0.8-2.5c-0.5-0.7-1.4-1.4-2.5-2.2c-1.2-0.7-4.3-2.2-9.3-4.5c-4.6-2.1-8-4.1-10.3-6c-2.3-1.9-4-4.2-5.1-6.7
		c-1.1-2.5-1.6-5.5-1.6-8.9c0-6.4,2.3-11.5,7-15.1c4.7-3.6,11.1-5.4,19.3-5.4c7.2,0,14.6,1.7,22.1,5l-5.8,14.6
		c-6.5-3-12.2-4.5-16.9-4.5c-2.5,0-4.2,0.4-5.4,1.3c-1.1,0.9-1.7,1.9-1.7,3.2c0,1.4,0.7,2.6,2.1,3.7c1.4,1.1,5.3,3.1,11.5,5.9
		c6,2.7,10.2,5.6,12.5,8.7C387.3,128.2,388.4,132.1,388.4,136.8z"/>
	<path class="st0" d="M430.6,159c-2.7,0-5.2-0.5-7.4-1.4s-4.3-2.5-6.5-4.9H416c0.6,3.8,0.9,6.2,0.9,7.1v21.7h-18.7v-77.7h15.2
		l2.6,6.9h0.9c3.5-5.2,8.3-7.8,14.4-7.8c6,0,10.7,2.5,14.1,7.5c3.4,5,5.1,11.8,5.1,20.5c0,8.7-1.8,15.6-5.3,20.6
		C441.5,156.5,436.7,159,430.6,159z M424.4,117.6c-2.7,0-4.7,1-5.8,2.9c-1.1,2-1.7,4.9-1.8,8.7v1.5c0,4.7,0.6,8,1.9,10.1
		c1.2,2.1,3.2,3.1,5.9,3.1c2.4,0,4.1-1,5.2-3.1c1.1-2.1,1.6-5.5,1.6-10.2c0-4.7-0.5-8-1.6-10C428.7,118.6,426.9,117.6,424.4,117.6z"
		/>
	<path class="st0" d="M493.8,102.9c1.6,0,3.2,0.1,4.6,0.4l1.1,0.2l-1.7,17.6c-1.5-0.4-3.6-0.6-6.4-0.6c-4.1,0-7,0.9-8.9,2.8
		c-1.8,1.9-2.8,4.5-2.8,8.1V158h-18.7v-54.2H475l2.9,8.7h0.9c1.6-2.9,3.7-5.2,6.5-7C488.1,103.8,490.9,102.9,493.8,102.9z"/>
	<path class="st0" d="M542.3,158l-3.6-7.2h-0.4c-2.5,3.1-5.1,5.3-7.7,6.4c-2.6,1.1-6,1.7-10.1,1.7c-5.1,0-9.1-1.5-12-4.6
		c-2.9-3.1-4.4-7.4-4.4-12.9c0-5.8,2-10.1,6-12.9c4-2.8,9.8-4.4,17.4-4.8l9-0.3v-0.8c0-4.5-2.2-6.7-6.6-6.7c-4,0-9,1.3-15.1,4
		l-5.4-12.3c6.3-3.3,14.3-4.9,23.9-4.9c6.9,0,12.3,1.7,16.1,5.2c3.8,3.4,5.7,8.3,5.7,14.4V158H542.3z M528.5,145.8
		c2.3,0,4.2-0.7,5.8-2.2c1.6-1.4,2.4-3.3,2.4-5.6v-4.2l-4.3,0.2c-6.2,0.2-9.2,2.5-9.2,6.8C523.2,144.1,525,145.8,528.5,145.8z"/>
	<path class="st0" d="M602.2,158v-29.5c0-3.6-0.5-6.3-1.6-8.1c-1-1.8-2.7-2.7-5-2.7c-3.2,0-5.4,1.3-6.8,3.8c-1.4,2.5-2.1,6.8-2.1,13
		V158H568v-54.2h14.1l2.3,6.7h1.1c1.6-2.5,3.8-4.5,6.6-5.7c2.8-1.3,6.1-1.9,9.7-1.9c6,0,10.7,1.7,14,5.2c3.3,3.5,5,8.4,5,14.7V158
		H602.2z"/>
	<path class="st0" d="M660.1,144.2c2.5,0,5.5-0.6,9-1.9v13.6c-2.5,1.1-4.9,1.9-7.2,2.3c-2.3,0.5-4.9,0.7-8,0.7
		c-6.3,0-10.8-1.5-13.6-4.6c-2.8-3.1-4.2-7.8-4.2-14.2v-22.3h-6.5v-7.6l8.3-5.9l4.8-11.4h12.2v10.9h13.3v14h-13.3v21.1
		C655.1,142.4,656.7,144.2,660.1,144.2z"/>
</g>
<g id="Layer_1-2">
	<g>
		<path class="st0" d="M250.7,158.4c-1.2,0-2.4-0.3-3.4-1c-2.9-1.9-3.7-5.7-1.9-8.6c0.6-1,2-4,1.2-6.6c-0.6-2-2.4-3.8-5.4-5.3
			c-7.2-3.6-9-8.6-9.2-12.1c-0.5-9.9,11.1-17.8,13.4-19.3c2.9-1.9,6.8-1,8.6,1.9c1.9,2.9,1,6.8-1.9,8.6c-4,2.6-7.5,6.5-7.7,8
			c0.1,0.2,0.7,0.8,2.3,1.6c7.9,4,10.8,9.4,11.9,13.2c2.3,8.5-2.3,15.8-2.8,16.7C254.8,157.4,252.8,158.4,250.7,158.4z"/>
	</g>
	<g>
		<path class="st0" d="M265.7,124c-7.2,0-13.8-5-15.3-12.4c-0.9-4.1-0.1-8.3,2.2-11.8c2.3-3.5,5.8-5.9,9.9-6.8
			c0.3-0.1,0.6-0.1,0.9-0.2c3.8-0.6,27.8-1.5,30,10.4c2.2,11.9-20.5,19.6-24.3,20.4l0,0C267.8,123.9,266.7,124,265.7,124z
			 M268.5,105c-1.2,0-2.3,0.1-3.1,0.2l-0.2,0c-0.1,0-0.1,0-0.2,0c-1.7,0.4-2.8,2-2.4,3.7c0.4,1.7,2,2.8,3.7,2.4l0.2,0
			c2.7-0.5,8.3-3.1,11.8-5.4C275.4,105.4,271.5,105,268.5,105z"/>
	</g>
	<g>
		<path class="st0" d="M235.7,115.4c-3.4,0-6.7-1.1-9.4-3.2c-0.2-0.2-0.4-0.3-0.7-0.5c-3-2.5-19.4-20-11.8-29.5
			c1.1-1.4,3.2-3.1,6.8-3.5c8-0.9,20.8,5.6,24.6,8.6c6.8,5.2,8.2,15.1,2.9,21.9c-2.5,3.3-6.2,5.5-10.4,6.1
			C237.1,115.4,236.4,115.4,235.7,115.4z M225.7,91.7c1.9,3.5,5.3,8.3,7.8,10.3l0.1,0.1c0,0,0.1,0.1,0.1,0.1
			c0.9,0.7,1.9,0.7,2.3,0.6c0.5-0.1,1.4-0.3,2.1-1.2c0.7-0.9,0.7-1.9,0.6-2.3c-0.1-0.5-0.3-1.4-1.2-2.1l-0.1-0.1
			C235.3,95.4,229.8,92.9,225.7,91.7z"/>
	</g>
	<g>
		<path class="st0" d="M284.6,165.1h-59.3c-3.5,0-6.3-2.8-6.3-6.3s2.8-6.3,6.3-6.3h59.3c3.5,0,6.3,2.8,6.3,6.3
			S288.1,165.1,284.6,165.1z"/>
	</g>
</g>
</svg>
